<svg xmlns="http://www.w3.org/2000/svg" width="16" height="16" viewBox="0 0 12 12"><path style="fill:none;stroke:#df2b6a;stroke-width:.99975;stroke-linecap:butt;stroke-linejoin:miter;stroke-miterlimit:10;stroke-dasharray:none;stroke-opacity:1" d="M8.5 3.5C8.5 2.121 7.379 1 6 1S3.5 2.121 3.5 3.5 4.621 6 6 6s2.5-1.121 2.5-2.5ZM6 11V6M3.5 8.5h5"/><path d="M6.5 6v-.9c.7-.31 1.18-.83 1.18-1.33 0-.24-.18-.46-.48-.46-.25 0-.4.07-.65.07-.5 0-.42-.24-.53-.24-.11 0-.22.13-.22.33 0 .3.25.45.5.45.15 0 .2-.06.29-.06.06 0 .09.01.09.04 0 .05-.11.14-.25.14-.5 0-.56-.34-1.18-.34-.38 0-.62.24-.62.63 0 .49.32.7.87.77V6zm.94-3.47c0-.2-.24-.52-.39-.52s-.25.84-.25.94c0 .15.15.33.3.33.11 0 .34-.55.34-.75zm-.65-.44c0-.25-.39-.37-.53-.37-.19 0-.25.5-.25 1 0 .2.09.46.34.46s.44-.56.44-1.09zm-.84-.05c0-.14-.06-.27-.17-.27-.2 0-.58.25-.58.5 0 .5.1 1 .35 1 .27 0 .4-.95.4-1.23zm-.79 1.23c0-.45-.06-.98-.21-.98-.2 0-.45.16-.45.38 0 .42.2.95.5.95.11 0 .16-.08.16-.35z" style="fill:#df2b6a;fill-opacity:1;stroke:none;stroke-width:.99974996;stroke-miterlimit:10;stroke-dasharray:none"/></svg>